<svg xmlns="http://www.w3.org/2000/svg" viewBox="0 0 900 700">
<defs>
 <radialGradient id="g" cx="68%" cy="30%"><stop offset="0" stop-color="#2f7cff" stop-opacity=".38"/><stop offset=".48" stop-color="#071225" stop-opacity=".05"/><stop offset="1" stop-color="#020711" stop-opacity="0"/></radialGradient>
 <linearGradient id="bg" x2="1" y2="1"><stop stop-color="#020711"/><stop offset=".55" stop-color="#081a35"/><stop offset="1" stop-color="#020711"/></linearGradient>
 <filter id="glow"><feGaussianBlur stdDeviation="18" result="b"/><feMerge><feMergeNode in="b"/><feMergeNode in="SourceGraphic"/></feMerge></filter>
 <pattern id="grid" width="36" height="36" patternUnits="userSpaceOnUse"><path d="M36 0H0V36" fill="none" stroke="#fff" stroke-opacity=".045"/></pattern>
</defs>
<rect width="900" height="700" fill="url(#bg)"/><rect width="900" height="700" fill="url(#g)"/><rect width="900" height="700" fill="url(#grid)"/>
<circle cx="620" cy="285" r="190" fill="none" stroke="#2f7cff" stroke-opacity=".18" stroke-width="2"/><circle cx="620" cy="285" r="145" fill="none" stroke="#ffd21a" stroke-opacity=".14" stroke-width="1"/>
<path d="M40 560 C220 420 340 630 520 490 S790 450 900 540" fill="none" stroke="#2f7cff" stroke-opacity=".16" stroke-width="3"/>
<g transform="translate(620 280)" filter="url(#glow)" fill="none" stroke="#ffd21a" stroke-width="10" stroke-linecap="round" stroke-linejoin="round">
 <circle r="108" stroke-opacity=".92"/>
 <path d="M-62 -88L-24 -20L-68 54M62 -88L24 -20L68 54M-68 54L0 84L68 54M-24 -20H24M-62 -88H62"/>
</g>
<text x="54" y="78" fill="#8f9bb0" font-family="Arial,sans-serif" font-size="18" letter-spacing="5">FRESHMERCH / UNIVERS</text>
<text x="54" y="625" fill="#fff" font-family="Arial,sans-serif" font-size="52" font-weight="800" letter-spacing="-1">FOOTBALL</text>
<rect x="55" y="650" width="74" height="4" rx="2" fill="#ffd21a"/>
</svg>